<svg xmlns="http://www.w3.org/2000/svg" xmlns:xlink="http://www.w3.org/1999/xlink" version="1.1" width="595.92pt" height="800.175pt" viewBox="0 0 595.92 800.175">
<defs>
<clipPath id="clip_0">
<path transform="matrix(1,0,0,-1,0,842.88)" d="M0 0H595.92V842.88H0Z"/>
</clipPath>
<clipPath id="clip_1">
<path transform="matrix(.24,0,0,.24,0,0)" d="M0 0H2481.25V3510.7049H0Z" fill-rule="evenodd"/>
</clipPath>
<clipPath id="clip_2">
<path transform="matrix(.24,0,0,.24,0,0)" d="M0 0H2481.25V3510.7049H0Z" fill-rule="evenodd"/>
</clipPath>
</defs>
<g clip-path="url(#clip_0)">
<g clip-path="url(#clip_1)">
<path transform="matrix(.63351067,0,0,.63351067,0,0)" d="M0 0H940V1330H0Z" fill="#ffffff"/>
<path transform="matrix(.63351067,0,0,.63351067,0,0)" d="M0 0H940V1330H0Z" fill="#ffffff"/>
</g>
<g clip-path="url(#clip_2)">
<path transform="matrix(.63351067,0,0,.63351067,0,0)" d="M341 106C340.99998 106.265209 340.94923 106.520328 340.84773 106.76535 340.74623 107.01037 340.6017 107.226657 340.41419 107.4142 340.22663 107.60173 340.01036 107.74625 339.76533 107.84774 339.5203 107.949237 339.2652 107.99999 339 108 338.73478 107.99999 338.4796 107.949237 338.2346 107.84774 337.98957 107.74625 337.7733 107.60173 337.58576 107.4142 337.3982 107.226657 337.25367 107.01037 337.1522 106.76535 337.05073 106.520328 336.99998 106.265209 337 106 336.99998 105.73478 337.05073 105.47965 337.1522 105.23462 337.25367 104.989589 337.3982 104.7733 337.58576 104.58577 337.7733 104.39823 337.98957 104.25372 338.2346 104.15223 338.4796 104.05074 338.73478 104 339 104 339.2652 104 339.5203 104.05074 339.76533 104.15222 340.01036 104.253719 340.22663 104.39823 340.41419 104.58577 340.6017 104.7733 340.74623 104.989589 340.84773 105.23462 340.94923 105.47965 340.99998 105.73478 341 106Z" fill="#384347"/>
<path transform="matrix(.63351067,0,0,.63351067,0,0)" d="M481 106C480.99998 106.265209 480.94923 106.520328 480.84773 106.76535 480.74623 107.01037 480.6017 107.226657 480.41419 107.4142 480.22663 107.60173 480.01036 107.74625 479.76533 107.84774 479.5203 107.949237 479.26518 107.99999 479 108 478.73478 107.99999 478.4796 107.949237 478.2346 107.84774 477.98954 107.74625 477.77326 107.60173 477.58576 107.4142 477.3982 107.226657 477.25367 107.01037 477.1522 106.76535 477.05073 106.520328 476.99998 106.265209 477 106 476.99998 105.73478 477.05073 105.47965 477.1522 105.23462 477.25367 104.989589 477.3982 104.7733 477.58576 104.58577 477.77326 104.39823 477.98954 104.25372 478.2346 104.15223 478.4796 104.05074 478.73478 104 479 104 479.26518 104 479.5203 104.05074 479.76533 104.15222 480.01036 104.253719 480.22663 104.39823 480.41419 104.58577 480.6017 104.7733 480.74623 104.989589 480.84773 105.23462 480.94923 105.47965 480.99998 105.73478 481 106Z" fill="#384347"/>
<path transform="matrix(.63351067,0,0,.63351067,0,0)" d="M602 106C601.99996 106.265209 601.94918 106.520328 601.84768 106.76535 601.74618 107.01037 601.6017 107.226657 601.4141 107.4142 601.22659 107.60173 601.0103 107.74625 600.7653 107.84774 600.52029 107.949237 600.2652 107.99999 600 108 599.7347 107.99999 599.47958 107.949237 599.23458 107.84774 598.9895 107.74625 598.77328 107.60173 598.58578 107.4142 598.3982 107.226657 598.25369 107.01037 598.15219 106.76535 598.05068 106.520328 597.99996 106.265209 598 106 597.99996 105.73478 598.05068 105.47965 598.15219 105.23462 598.25369 104.989589 598.3982 104.7733 598.58578 104.58577 598.77328 104.39823 598.9895 104.25372 599.23458 104.15223 599.47958 104.05074 599.7347 104 600 104 600.2652 104 600.52029 104.05074 600.7653 104.15222 601.0103 104.253719 601.22659 104.39823 601.4141 104.58577 601.6017 104.7733 601.74618 104.989589 601.84768 105.23462 601.94918 105.47965 601.99996 105.73478 602 106Z" fill="#384347"/>
<path transform="matrix(.63351067,0,0,.63351067,0,0)" d="M84 738C84 738.27609 83.90237 738.5118 83.7071 738.70706 83.51184 738.9023 83.27614 738.99996 83 739 82.723857 738.99996 82.48815 738.9023 82.29289 738.70706 82.097629 738.5118 81.99999 738.27609 82 738 81.99999 737.7238 82.097629 737.4881 82.29289 737.29287 82.48815 737.0976 82.723857 737 83 737 83.27614 737 83.51184 737.0976 83.7071 737.29287 83.90237 737.4881 84 737.7238 84 738Z" fill="#384347"/>
<path transform="matrix(.63351067,0,0,.63351067,0,0)" d="M144 738C143.99999 738.27609 143.90236 738.5118 143.70709 738.70706 143.51183 738.9023 143.27614 738.99996 143 739 142.72386 738.99996 142.48816 738.9023 142.2929 738.70706 142.09763 738.5118 141.99999 738.27609 142 738 141.99999 737.7238 142.09763 737.4881 142.2929 737.29287 142.48816 737.0976 142.72386 737 143 737 143.27614 737 143.51183 737.0976 143.70709 737.29287 143.90236 737.4881 143.99999 737.7238 144 738Z" fill="#384347"/>
<path transform="matrix(.63351067,0,0,.63351067,0,0)" d="M205 738C205 738.27609 204.90238 738.5118 204.7071 738.70706 204.51184 738.9023 204.27614 738.99996 204 739 203.72385 738.99996 203.48815 738.9023 203.29288 738.70706 203.09761 738.5118 202.99999 738.27609 203 738 202.99999 737.7238 203.09761 737.4881 203.29288 737.29287 203.48815 737.0976 203.72385 737 204 737 204.27614 737 204.51184 737.0976 204.7071 737.29287 204.90238 737.4881 205 737.7238 205 738Z" fill="#384347"/>
<path transform="matrix(.63351067,0,0,.63351067,0,0)" d="M251 738C250.99999 738.27609 250.90236 738.5118 250.70709 738.70706 250.51183 738.9023 250.27614 738.99996 250 739 249.72385 738.99996 249.48815 738.9023 249.29288 738.70706 249.09761 738.5118 248.99999 738.27609 249 738 248.99999 737.7238 249.09761 737.4881 249.29288 737.29287 249.48815 737.0976 249.72385 737 250 737 250.27614 737 250.51183 737.0976 250.70709 737.29287 250.90236 737.4881 250.99999 737.7238 251 738Z" fill="#384347"/>
<path transform="matrix(.63351067,0,0,.63351067,0,0)" d="M292 738C291.99998 738.27609 291.90235 738.5118 291.70707 738.70706 291.5118 738.9023 291.27613 738.99996 291 739 290.72386 738.99996 290.48817 738.9023 290.29289 738.70706 290.09764 738.5118 290 738.27609 290 738 290 737.7238 290.09764 737.4881 290.29289 737.29287 290.48817 737.0976 290.72386 737 291 737 291.27613 737 291.5118 737.0976 291.70707 737.29287 291.90235 737.4881 291.99998 737.7238 292 738Z" fill="#384347"/>
<path transform="matrix(.63351067,0,0,.63351067,0,0)" d="M352 738C352 738.27609 351.90238 738.5118 351.7071 738.70706 351.51185 738.9023 351.27616 738.99996 351 739 350.72386 738.99996 350.48814 738.9023 350.29289 738.70706 350.0976 738.5118 349.99998 738.27609 350 738 349.99998 737.7238 350.0976 737.4881 350.29289 737.29287 350.48814 737.0976 350.72386 737 351 737 351.27616 737 351.51185 737.0976 351.7071 737.29287 351.90238 737.4881 352 737.7238 352 738Z" fill="#384347"/>
<path transform="matrix(.63351067,0,0,.63351067,0,0)" d="M382 738C381.99998 738.27609 381.9023 738.5118 381.70707 738.70706 381.51179 738.9023 381.2761 738.99996 381 739 380.72386 738.99996 380.48814 738.9023 380.29286 738.70706 380.0976 738.5118 379.99998 738.27609 380 738 379.99998 737.7238 380.0976 737.4881 380.29286 737.29287 380.48814 737.0976 380.72386 737 381 737 381.2761 737 381.51179 737.0976 381.70707 737.29287 381.9023 737.4881 381.99998 737.7238 382 738Z" fill="#384347"/>
<path transform="matrix(.63351067,0,0,.63351067,0,0)" d="M412 738C411.99998 738.27609 411.90235 738.5118 411.7071 738.70706 411.5118 738.9023 411.27613 738.99996 411 739 410.72386 738.99996 410.48817 738.9023 410.29289 738.70706 410.09764 738.5118 410 738.27609 410 738 410 737.7238 410.09764 737.4881 410.29289 737.29287 410.48817 737.0976 410.72386 737 411 737 411.27613 737 411.5118 737.0976 411.7071 737.29287 411.90235 737.4881 411.99998 737.7238 412 738Z" fill="#384347"/>
<path transform="matrix(.63351067,0,0,.63351067,0,0)" d="M450 738C449.99998 738.27609 449.90235 738.5118 449.7071 738.70706 449.5118 738.9023 449.27613 738.99996 449 739 448.72386 738.99996 448.48814 738.9023 448.29286 738.70706 448.0976 738.5118 447.99998 738.27609 448 738 447.99998 737.7238 448.0976 737.4881 448.29286 737.29287 448.48814 737.0976 448.72386 737 449 737 449.27613 737 449.5118 737.0976 449.7071 737.29287 449.90235 737.4881 449.99998 737.7238 450 738Z" fill="#384347"/>
<path transform="matrix(.63351067,0,0,.63351067,0,0)" d="M520 738C520 738.27609 519.90237 738.5118 519.7071 738.70706 519.51187 738.9023 519.2761 738.99996 519 739 518.7238 738.99996 518.4881 738.9023 518.29287 738.70706 518.0976 738.5118 517.99996 738.27609 518 738 517.99996 737.7238 518.0976 737.4881 518.29287 737.29287 518.4881 737.0976 518.7238 737 519 737 519.2761 737 519.51187 737.0976 519.7071 737.29287 519.90237 737.4881 520 737.7238 520 738Z" fill="#384347"/>
<path transform="matrix(.63351067,0,0,.63351067,0,0)" d="M607 738C607 738.27609 606.90237 738.5118 606.7071 738.70706 606.51187 738.9023 606.2761 738.99996 606 739 605.7238 738.99996 605.4881 738.9023 605.29287 738.70706 605.0976 738.5118 604.99996 738.27609 605 738 604.99996 737.7238 605.0976 737.4881 605.29287 737.29287 605.4881 737.0976 605.7238 737 606 737 606.2761 737 606.51187 737.0976 606.7071 737.29287 606.90237 737.4881 607 737.7238 607 738Z" fill="#384347"/>
<path transform="matrix(.63351067,0,0,.63351067,0,0)" d="M677 738C676.99996 738.27609 676.90237 738.5118 676.7071 738.70706 676.51187 738.9023 676.2761 738.99996 676 739 675.7238 738.99996 675.4881 738.9023 675.29287 738.70706 675.0976 738.5118 675 738.27609 675 738 675 737.7238 675.0976 737.4881 675.29287 737.29287 675.4881 737.0976 675.7238 737 676 737 676.2761 737 676.51187 737.0976 676.7071 737.29287 676.90237 737.4881 676.99996 737.7238 677 738Z" fill="#384347"/>
<path transform="matrix(.63351067,0,0,.63351067,0,0)" d="M722 738C722 738.27609 721.90237 738.5118 721.7071 738.70706 721.51187 738.9023 721.2761 738.99996 721 739 720.7238 738.99996 720.48818 738.9023 720.2929 738.70706 720.09768 738.5118 720 738.27609 720 738 720 737.7238 720.09768 737.4881 720.2929 737.29287 720.48818 737.0976 720.7238 737 721 737 721.2761 737 721.51187 737.0976 721.7071 737.29287 721.90237 737.4881 722 737.7238 722 738Z" fill="#384347"/>
<path transform="matrix(.63351067,0,0,.63351067,0,0)" d="M764 738C763.99996 738.27609 763.9023 738.5118 763.70706 738.70706 763.5118 738.9023 763.27609 738.99996 763 739 762.7238 738.99996 762.48818 738.9023 762.2929 738.70706 762.09768 738.5118 762 738.27609 762 738 762 737.7238 762.09768 737.4881 762.2929 737.29287 762.48818 737.0976 762.7238 737 763 737 763.27609 737 763.5118 737.0976 763.70706 737.29287 763.9023 737.4881 763.99996 737.7238 764 738Z" fill="#384347"/>
<path transform="matrix(.63351067,0,0,.63351067,0,0)" d="M797 738C796.99996 738.27609 796.9023 738.5118 796.70706 738.70706 796.5118 738.9023 796.2761 738.99996 796 739 795.7238 738.99996 795.4881 738.9023 795.29287 738.70706 795.0976 738.5118 794.99996 738.27609 795 738 794.99996 737.7238 795.0976 737.4881 795.29287 737.29287 795.4881 737.0976 795.7238 737 796 737 796.2761 737 796.5118 737.0976 796.70706 737.29287 796.9023 737.4881 796.99996 737.7238 797 738Z" fill="#384347"/>
<path transform="matrix(.63351067,0,0,.63351067,0,0)" d="M843 738C843 738.27609 842.90237 738.5118 842.7071 738.70706 842.51187 738.9023 842.2761 738.99996 842 739 841.7238 738.99996 841.48806 738.9023 841.2928 738.70706 841.09756 738.5118 840.99996 738.27609 841 738 840.99996 737.7238 841.09756 737.4881 841.2928 737.29287 841.48806 737.0976 841.7238 737 842 737 842.2761 737 842.51187 737.0976 842.7071 737.29287 842.90237 737.4881 843 737.7238 843 738Z" fill="#384347"/>
<path transform="matrix(.63351067,0,0,.63351067,0,0)" d="M887 738C886.99996 738.27609 886.9022 738.5118 886.707 738.70706 886.5117 738.9023 886.27609 738.99996 886 739 885.7238 738.99996 885.4881 738.9023 885.29287 738.70706 885.0976 738.5118 885 738.27609 885 738 885 737.7238 885.0976 737.4881 885.29287 737.29287 885.4881 737.0976 885.7238 737 886 737 886.27609 737 886.5117 737.0976 886.707 737.29287 886.9022 737.4881 886.99996 737.7238 887 738Z" fill="#384347"/>
<path transform="matrix(.63351067,0,0,.63351067,0,0)" d="M121 757C120.99999 757.2761 120.90236 757.5118 120.7071 757.70706 120.51184 757.9023 120.27614 757.99996 120 758 119.723857 757.99996 119.488147 757.9023 119.292888 757.70706 119.097629 757.5118 118.99999 757.2761 119 757 118.99999 756.7238 119.097629 756.4881 119.292888 756.29287 119.488147 756.0976 119.723857 756 120 756 120.27614 756 120.51184 756.0976 120.7071 756.29287 120.90236 756.4881 120.99999 756.7238 121 757Z" fill="#384347"/>
<path transform="matrix(.63351067,0,0,.63351067,0,0)" d="M195 757C194.99999 757.2761 194.90235 757.5118 194.70708 757.70706 194.51181 757.9023 194.27613 757.99996 194 758 193.72386 757.99996 193.48816 757.9023 193.2929 757.70706 193.09763 757.5118 193 757.2761 193 757 193 756.7238 193.09763 756.4881 193.2929 756.29287 193.48816 756.0976 193.72386 756 194 756 194.27613 756 194.51181 756.0976 194.70708 756.29287 194.90235 756.4881 194.99999 756.7238 195 757Z" fill="#384347"/>
<path transform="matrix(.63351067,0,0,.63351067,0,0)" d="M228 757C227.99999 757.2761 227.90236 757.5118 227.70709 757.70706 227.51183 757.9023 227.27614 757.99996 227 758 226.72386 757.99996 226.48816 757.9023 226.2929 757.70706 226.09763 757.5118 226 757.2761 226 757 226 756.7238 226.09763 756.4881 226.2929 756.29287 226.48816 756.0976 226.72386 756 227 756 227.27614 756 227.51183 756.0976 227.70709 756.29287 227.90236 756.4881 227.99999 756.7238 228 757Z" fill="#384347"/>
<text xml:space="preserve" transform="matrix(.63351067 0 0 .63351067 0 0)" font-size="20" font-family="Volkhov" font-weight="bold"><tspan y="70" x="395.65626 406.15626 420.79624 435.5562 443.81623 448.2762 461.5362 476.17619 490.49617 505.13615 519.41616 536.0761">FADI BADARNI</tspan></text>
<text fill="#6f7878" xml:space="preserve" transform="matrix(.63351067 0 0 .63351067 0 0)" font-size="16" font-family="PTSans"><tspan y="92" x="343.51564 352.01167 360.3957 365.2437 370.66773 382.42774 390.36378 395.80378 403.9318 408.2038 416.77983 425.53184 434.12385 438.41188 447.16389 455.1159 463.24394 468.68397 472.972 481.724 490.316 494.588 505.02003 513.77206 522.38009 530.50808 535.94808 544.54006 549.98007 557.9161 566.5241 575.14816 583.08419 588.33218">Software Engineering Undergraduate</tspan></text>
<text fill="#384347" xml:space="preserve" transform="matrix(.63351067 0 0 .63351067 0 0)" font-size="13" font-family="PTSans"><tspan y="110" x="255.98438 263.0694 270.15443 277.23945 284.32447 291.4095 298.4945 305.57954 312.66456 319.74958">0524183083</tspan></text>
<text fill="#384347" xml:space="preserve" transform="matrix(.63351067 0 0 .63351067 0 0)" font-size="13" font-family="PTSans"><tspan y="110" x="350.84376 354.99076 361.43879 368.4328 374.49079 381.5108 388.50483 395.58985 409.42189 416.4029 426.95893 433.40693 436.89094 440.68696 443.46894 449.03297 456.00099">fadybd1@gmail.com</tspan></text>
<text fill="#384347" xml:space="preserve" transform="matrix(.63351067 0 0 .63351067 0 0)" font-size="13" font-family="PTSans"><tspan y="110" x="490.5625 500.1175 509.6725 518.4215 521.2035 528.1975 534.5155 540.7815 544.92849 551.37649 558.3705 561.8545 564.6365 570.2005 577.1685">www.devfadi.com</tspan></text>
<text fill="#384347" xml:space="preserve" transform="matrix(.63351067 0 0 .63351067 0 0)" font-size="13" font-family="PTSans"><tspan y="110" x="611.7344 619.33938 623.75936 628.1793 634.6273 641.64736 648.09536 650.00637 653.47738 657.2604 662.7334 667.1534 673.6014 680.2054">Arraba, Israel</tspan></text>
<path transform="matrix(.63351067,0,0,.63351067,0,0)" d="M57 162H883V163H57Z"/>
<text xml:space="preserve" transform="matrix(.63351067 0 0 .63351067 0 0)" font-size="16" font-family="Volkhov"><tspan y="152" x="431.48439 440.9084 451.2604 467.03645 482.81248 491.64448 498.87648">Summary</tspan></text>
<text fill="#384347" xml:space="preserve" transform="matrix(.63351067 0 0 .63351067 0 0)" font-size="12" font-family="PTSans"><tspan y="183" x="57 63.37204 69.46808 72.97211 76.80014 81.12018 87.57622 91.65625 94.87227 100.52431 106.620349 113.18439 116.38841 122.340457 128.9045 135.36054 138.56456 143.70059 150.13265 153.63668 157.1407 163.09275 169.57279 176.00484 180.08487 186.03691 190.10494 193.32096 198.97299 205.06903 208.27306 213.32509 219.61315 223.24918 227.3172 236.13727 242.08931 246.16934 252.26538 255.4694 261.56544 268.12947 274.5735 277.7895 284.35353 290.31758 296.4136 300.49366 303.70967 310.27369 316.7177 319.92173 326.38978 332.95384 339.40989 345.50593 349.58598 356.03 360.11003 366.06205 372.5181 378.98616 384.9382 388.87425 394.97029 398.1743 406.99436 410.21037 414.27839 420.84245 424.04649 429.9985 433.20256 438.25459 442.3226 446.40263 452.8347 459.3987 465.84275 469.04679 472.74284 479.1749 485.64295 492.207 498.66307 504.61509 508.6831 511.89915 518.3312 524.8952 528.09927 531.31527 537.8793 541.0833 544.5753 550.52737 556.3114 562.2634 564.02749 567.23147 573.9395 579.53158 583.5996 590.16366 596.5957 603.1597 604.9237 608.12777 614.0798 620.6438 627.09988 630.3039 633.7959 639.7479 645.532 651.484 657.8561 663.2681 667.34817 670.56417 677.0562 681.3162 682.94827 686.1523 692.4403 696.5203">Self-driven and collaborative software engineering undergraduate with a strong foundation in Java, Python, and JavaScript. Pro</tspan></text>
<text fill="#384347" xml:space="preserve" transform="matrix(.63351067 0 0 .63351067 0 0)" font-size="12" font-family="PTSans"><tspan y="183" x="702.9524">&#xfb01;</tspan></text>
<text fill="#384347" xml:space="preserve" transform="matrix(.63351067 0 0 .63351067 0 0)" font-size="12" font-family="PTSans"><tspan y="183" x="709.43246 714.8445 718.0605 724.1565 730.7205 734.7886 737.9926 741.2086 747.77267 750.9767 757.40878 763.8888 767.09286 773.0569 778.46896 782.15298 786.473 792.9051 796.9851 800.2011 806.2971 812.86117 816.7972 822.8932">cient in object-oriented</tspan></text>
<text fill="#384347" xml:space="preserve" transform="matrix(.63351067 0 0 .63351067 0 0)" font-size="12" font-family="PTSans"><tspan y="183" x="829.3594"> </tspan></text>
<text fill="#384347" xml:space="preserve" transform="matrix(.63351067 0 0 .63351067 0 0)" font-size="12" font-family="PTSans"><tspan y="200" x="57 63.49205 67.57208 74.004138 80.44818 84.52821 90.480258 100.22432 109.96838 113.1844 119.74844 126.19249 127.9565 131.16053 137.61656 143.5686 147.63663 153.58867 156.7927 161.84473 165.91275 169.99279 176.46083 181.87287 185.94089 192.40894 196.48897 202.585 207.63704 209.40105 212.60507 218.55712 225.12116 231.5772 234.78122 240.73326 244.23729 250.68134 257.1134 261.19343 264.40943 268.47746 275.0415 284.78559 289.83763 291.46965 294.67366 301.1057 307.05775 313.50178 319.5978 323.67787 326.8819 330.81794 337.25 340.45405 343.95808 349.7901 355.44215 361.53819 365.61824 371.57026 378.01429 384.11033 387.31434 393.8064 397.8864 404.31849 410.79853 414.30256 420.3986 430.14265 434.46269 439.5147 445.94679 449.4508 455.23487 458.45088 465.0149 471.45893 474.66297 480.615 487.09504 490.31105 493.81507 497.03108 501.0991 504.31513 510.41117 515.4632 518.66726 524.61929 531.1833 537.63937 540.8434 549.53146 555.62747 562.1075 565.3115 571.7676 577.5996 583.25167 589.34768 592.8517 599.28378 605.7758 615.5199 621.61599 628.18 632.24807 635.4521 640.50418 646.2522 649.4682 652.9722 656.47628 661.5283 664.73239 667.94839 674.5124 677.71646 683.66848 686.8725 692.28457 698.8486 704.8006 708.3046 711.80868 717.90469 724.4687 730.9127 734.1287 740.69277 747.1368 750.3408 753.5568 760.12088 764.0569 770.15298 774.233 780.797 785.849 792.413 795.629 802.1211 805.32516 809.26119 815.69326 818.8973 825.35336 831.18539 836.8374 842.9335 846.4375 852.86959">programming, data structures, and algorithms. Eager to leverage problem-solving abilities and web development skills in a challenging internship to develop</tspan></text>
<text fill="#384347" xml:space="preserve" transform="matrix(.63351067 0 0 .63351067 0 0)" font-size="12" font-family="PTSans"><tspan y="200" x="859.375"> </tspan></text>
<text fill="#384347" xml:space="preserve" transform="matrix(.63351067 0 0 .63351067 0 0)" font-size="12" font-family="PTSans"><tspan y="217" x="57 60.21602 66.78006 73.3441 79.63216 85.4162 91.36824 95.436267 98.65228 104.30432 110.40036 113.604389 118.65642 124.94447 128.5805 132.64853 141.4686 147.42064 151.50067 157.59671 160.80074 165.85277 172.28482 175.78885 182.2569 186.32492 189.54094 195.97299 202.53704 207.58907 210.79309 216.74514 223.30918 229.76522 232.96924 236.79727 243.26532 247.70536 251.77338 258.3374 264.43345 268.5135 271.71754 277.53758 283.7176 290.20967 296.3057 300.74574 304.81376 308.0298 313.08183 319.17787 322.38188 325.59788 332.1619 335.36595 340.41798 346.70603 350.34208 354.4101 363.23017 369.18223 373.26225 379.35829 382.5623 388.65834 395.22239 401.6664 404.88243 411.44645 417.4105 423.50654 427.58659 430.80259 437.3666 443.81065">innovative software solutions and further expertise in software engineering.</tspan></text>
<path transform="matrix(.63351067,0,0,.63351067,0,0)" d="M57 274H883V275H57Z"/>
<text xml:space="preserve" transform="matrix(.63351067 0 0 .63351067 0 0)" font-size="16" font-family="Volkhov"><tspan y="264" x="426.45314 436.70918 446.7572 456.7572 465.33323 472.56526 478.02125 486.59727 497.2693 504.9653">Experience</tspan></text>
<text fill="#6f7878" xml:space="preserve" transform="matrix(.63351067 0 0 .63351067 0 0)" font-size="16" font-family="PTSans"><tspan y="297" x="57 66.344028 71.78404 76.07205 84.68007 93.27208 97.56009 102.66409">Bridgify</tspan></text>
<text xml:space="preserve" transform="matrix(.63351067 0 0 .63351067 0 0)" font-size="14" font-family="PTSans"><tspan y="316" x="57 64.237979 68.997959 76.50192 84.1599 88.75188 95.863849 103.52182 111.05379 114.79178 123.94774 130.75171 137.34568 144.45764 148.54563 156.04959 163.62357 170.73554 175.49552 179.2335 183.3075 190.96547 195.55745 202.66942 207.4294">Frontend Developer Intern</tspan></text>
<text fill="#384347" xml:space="preserve" transform="matrix(.63351067 0 0 .63351067 0 0)" font-size="14" font-family="PTSans"><tspan y="316" x="771.25 778.88 786.51 791.466 799.09597 806.72598 814.35598 821.98599 824.60397 828.5239 832.2619 839.89187 847.52188 852.47787 860.1078 867.7378 875.3678">08/2023 - 09/2023</tspan></text>
<text fill="#384347" xml:space="preserve" transform="matrix(.63351067 0 0 .63351067 0 0)" font-size="12" font-family="PTSans"><tspan y="338" x="76.984378 83.356418 89.848468 95.9445 101.896549 105.97658 112.54062 118.63666 124.5887 131.04474 137.14078 143.59682 146.80084 150.86887 157.4329 163.52895 166.73297 170.801 174.88103 180.83307 187.39711 192.44915 195.66516 199.73319 202.9492 209.38126 215.9453 219.14933 222.97736 227.05739 233.48944 243.2335 246.43753 251.48957 255.55759 261.14964 264.65367 270.7497 277.20576 281.5258 286.6618 293.09388 302.83796 309.33003 315.7621 322.3261 328.42216 334.9862 339.05424 344.10627 347.3103 351.24635 357.6784 360.88246 370.3745 376.32655 380.26258 386.3586 390.43867 393.65467 399.6067 403.11073 407.43077 415.25483 418.74684 420.51084 423.71485 429.81089 436.37495 442.93898 448.891 455.45503 460.86708 464.08308 470.6471 477.09114 480.29518 486.2472 492.73927 499.23133 502.73536 505.95137 511.3634 517.3154 521.3834 524.5995 531.03158 537.5956 540.7996 544.87966 550.9757 556.0277 562.5198 568.95187 575.51589 580.5679 583.78396 589.436 595.53207 602.09609 608.1921 613.2441 618.2961 621.5001 627.45217 634.0162 640.4722 643.6763 650.1323 656.22836 661.28036 664.49636 670.94039 677.5044 680.70846 685.8445 692.27658 698.8406 703.89266 707.10867 712.1607 716.09677 722.1928 728.75686 734.02487 739.1849 742.3889 748.34097 753.753 757.833 764.2651 769.3171 774.3691 777.5731 787.3172 793.7852 797.28927 801.35726 804.57327 811.0653 814.56936">Spearheaded the transition from styled-components to Material-UI, enhancing application responsiveness and design consistency across multiple</tspan></text>
<text fill="#384347" xml:space="preserve" transform="matrix(.63351067 0 0 .63351067 0 0)" font-size="12" font-family="PTSans"><tspan y="338" x="820.6719"> </tspan></text>
<text fill="#384347" xml:space="preserve" transform="matrix(.63351067 0 0 .63351067 0 0)" font-size="12" font-family="PTSans"><tspan y="355" x="76.984378 82.12041 88.55246 98.296527 104.788578 111.22063 117.78467 123.88071 130.44475 134.51277">components</tspan></text>
<text fill="#384347" xml:space="preserve" transform="matrix(.63351067 0 0 .63351067 0 0)" font-size="12" font-family="PTSans"><tspan y="372" x="76.984378 80.476398 90.22046 96.71251 100.79254 107.0806 112.732639 118.828678 125.28471 128.48874 134.95679 140.00882 146.10486 150.18489 153.38892 159.20896 165.38899 171.88105 177.97708 182.05712 185.27313 191.36917 197.93321 203.06925 209.16529 212.36931 218.70536 223.86539 227.06941 230.28543 236.84947 240.9175 244.99753 251.42958 257.88563 264.35368 269.7657 272.9817 279.54573 285.98976 289.1938 292.4098 298.97383 302.90986 309.0059 313.08595 319.03797 324.45 328.51805 331.73408 337.3861 343.48216 346.6862 350.38224 356.47828 362.43034 366.49836 372.9664 377.04643 383.14247 388.1945 391.39854 397.35057 403.91459 410.37065 413.57469 417.6547 423.75074 430.20677 436.3028 441.35484 444.57084 451.01487 457.5789 460.7949 467.35893 473.80296 477.007 484.83103 488.32304 491.52708 497.6231 501.12715 507.22319 516.9673 523.06338 529.62747 533.69546 538.74746 541.9515 545.6475 552.0796 556.1596 559.36367 565.8437 571.9397 576.0077 579.9437 586.0398 590.1199 593.3239 599.792 604.844 610.796 617.27609 620.49209 623.9961 627.2121 631.28018 636.4402 639.6442 645.59628 652.1603 658.61636 661.65237 667.4364 670.6524 675.70449 682.1725 688.1245 691.62857 694.8326 700.7846 707.2767 713.76876 719.86477 725.8168 729.3208">Improved user experience by introducing interactive features and redesigning UI elements for better usability and visual appeal.</tspan></text>
<text fill="#384347" xml:space="preserve" transform="matrix(.63351067 0 0 .63351067 0 0)" font-size="12" font-family="PTSans"><tspan y="389" x="76.984378 83.356418 86.57243 96.3165 102.80855 106.31258">Simpli</tspan></text>
<text fill="#384347" xml:space="preserve" transform="matrix(.63351067 0 0 .63351067 0 0)" font-size="12" font-family="PTSans"><tspan y="389" x="109.528598">&#xfb01;</tspan></text>
<text fill="#384347" xml:space="preserve" transform="matrix(.63351067 0 0 .63351067 0 0)" font-size="12" font-family="PTSans"><tspan y="389" x="116.00864 122.104679 128.56072 131.76474 136.90077 143.33283 149.78887 155.8849 162.36495 168.31699 173.36902 179.46506 182.66909 189.00513 194.16516 197.36919 202.78122 206.86125 212.95729 218.90933 222.97736 226.19338 232.75742 239.20146 242.40549 246.48552 252.58156 259.04963 264.10166 270.0537 276.53376 280.03779 286.13383 289.33784 294.47389 300.90596 310.65003 317.1421 323.57417 330.13819 336.2342 342.79823 346.86625 351.91828 353.68229 356.8863 360.1023 369.84638 376.33845 380.41847 386.7065 392.49055 395.70655 402.27058 408.7146 411.91865 417.0547 423.48677 429.9428 436.03886 439.24287 443.32289 449.4189 455.37098 461.82704 467.77906 474.2591 477.4751 480.97914 484.19514 488.26316 493.4232 496.6272 502.57923 509.14326 515.5993 518.80337 528.5474 534.49948 537.71548 544.2795 548.34756 554.29959 557.51559 564.0796 570.0316 576.51168 579.72769 583.2317 586.4477 590.5157">ed codebase by creating reusable components, improving code readability and maintainability</tspan></text>
<text fill="#384347" xml:space="preserve" transform="matrix(.63351067 0 0 .63351067 0 0)" font-size="12" font-family="PTSans"><tspan y="406" x="76.984378 85.19243 91.68448 95.7525 98.96852 108.712589 111.928607 117.10065 123.196689 129.65273 132.85675 137.90879 141.9768 147.92885 151.86487 157.9609 161.16493 170.909 176.86104 183.42508 189.37712 195.82117 201.9172 211.66127 217.75731 224.32135 228.38938 231.5934 237.54544 244.10948 250.56552 253.76955 257.84959 263.94563 267.77366 273.7257 279.13777 283.0738 289.50587 293.58589 299.68193 306.13795 309.34199 314.47804 320.9101 330.65419 337.1462 343.57829 350.1423 356.23835 362.8024 366.87043 371.92247 375.1265 378.82255 385.2546 389.33464 392.53868 399.0187 405.11476 409.18278 413.1188 419.21485 423.2949 426.49894 432.991 439.08705 443.16709 446.86314 453.2952 457.3752 467.1193 473.07133 479.63536 484.7714 490.86744 494.07145 500.02348 506.5875 513.0436 516.2476 521.2997 525.3677 529.4477 535.5437 541.4957 551.2398 554.74386 557.95986 564.52389 570.6199 577.0759 580.27999 586.74807 591.80007 597.89608 601.9761 605.1801 608.3961 614.96017 618.8962 624.99227 629.07229 635.0243 640.43637 644.50436 647.72036 654.1524 660.71646 665.7685">Optimized state management and refactored components for better performance and streamlined user interactions.</tspan></text>
<text fill="#6f7878" xml:space="preserve" transform="matrix(.63351067 0 0 .63351067 0 0)" font-size="16" font-family="PTSans"><tspan y="439" x="57 67.76802 76.15204 83.86406 88.15207 96.72809 105.38411 114.00813">Noviopus</tspan></text>
<text xml:space="preserve" transform="matrix(.63351067 0 0 .63351067 0 0)" font-size="14" font-family="PTSans"><tspan y="458" x="57 64.13997 71.643939 75.73192 83.27789 90.93587 95.52785 102.48581 109.59778 114.35776 118.09575 125.333728 130.0937 137.59767 145.25565 149.84763 156.9596 164.61757 172.14954 175.88753 185.04349 191.84746 198.44142 205.55339 209.64138 217.14534 224.71932 231.83129">Volunteer Frontend Developer</tspan></text>
<text fill="#384347" xml:space="preserve" transform="matrix(.63351067 0 0 .63351067 0 0)" font-size="14" font-family="PTSans"><tspan y="458" x="771.25 778.88 786.51 791.466 799.09597 806.72598 814.35598 821.98599 824.60397 828.5239 832.2619 839.89187 847.52188 852.47787 860.1078 867.7378 875.3678">10/2023 - 12/2023</tspan></text>
<text fill="#384347" xml:space="preserve" transform="matrix(.63351067 0 0 .63351067 0 0)" font-size="12" font-family="PTSans"><tspan y="480" x="76.984378 80.476398 90.22046 96.71251 100.21654 106.31258 116.05664 122.15268 128.71672 132.65274 138.74878 145.20482 148.40885 152.23688 156.31691 162.74897 169.313 172.99703 177.31707 183.4131 189.97714 196.43318 199.6372 206.10526 212.5973 219.05335 225.00539 228.9414 235.03745 240.08948 243.2935 253.03757 259.1336 263.20164 266.41767 271.8297 278.29777 281.8018 288.23384 294.70188 299.7539 303.25794 307.98597 309.74998 312.95399 318.906 325.36207 331.9261 338.02214 342.10215 345.31816 351.88218 358.3262 361.53025 365.46629 371.89836 375.1024 381.59446 385.67448 392.10655 395.31059 401.27464 406.68669 410.7547 413.9587 420.41477 426.84684 432.25889 438.72694 448.47099 454.56703 461.13108 465.1991 471.15116 475.21919 478.4352 484.86729 491.4313 494.63536 500.58738 507.1514 513.6074 516.81149 523.0155 526.2315 532.67556 542.4196 548.37167 551.5757 558.03176 564.1278 569.1798 572.3958 578.83987 585.4039 588.6079 595.05197 601.51998 604.73599 611.192 617.288 620.79208 624.00808 630.5721 636.66818 641.72018 644.9242 648.8602 655.2923 658.49636 664.94039 671.4084 677.3604 681.4404 687.39248 693.9565 697.8925 703.85659 709.9526 713.1566 718.29269 724.72476 734.4688 740.9609 744.4649 747.6809 753.63296 760.19699 765.333 771.429 774.63308 783.4531 786.6691 790.7371 797.30117 800.5052 804.3332 810.8012 817.36526 822.7773 826.8453 830.0613 836.49337 843.0574 849.0094 852.5134 855.71749 861.6695 868.2335">Implemented front-end updates meticulously, adhering to project documentation and Figma design guidelines to guarantee compliance with functional and</tspan></text>
<text fill="#384347" xml:space="preserve" transform="matrix(.63351067 0 0 .63351067 0 0)" font-size="12" font-family="PTSans"><tspan y="480" x="874.7031"> </tspan></text>
<text fill="#384347" xml:space="preserve" transform="matrix(.63351067 0 0 .63351067 0 0)" font-size="12" font-family="PTSans"><tspan y="497" x="76.984378 82.76842 85.984439 91.03647 97.50452 103.45656 106.96059 110.16461 116.62065 122.71669 127.76872 130.98474 137.42879 143.99283 147.19686 152.24889 156.31691 162.26895 168.833 175.28903 181.24108 185.3211 191.77715 196.82918">visual design standards.</tspan></text>
<text fill="#384347" xml:space="preserve" transform="matrix(.63351067 0 0 .63351067 0 0)" font-size="12" font-family="PTSans"><tspan y="514" x="76.984378 82.03641 88.504459 93.64049 98.77652 104.87256 109.92459 114.97662 118.80466 125.272708 128.77674 132.28076 137.4408 140.64482 146.59687 153.0529 159.50894 163.58898 169.68502 174.73705 179.78908 185.88512 192.34116 195.54518 201.49723 208.06127 214.5173">successfully addressed and </tspan></text>
<text fill="#384347" xml:space="preserve" transform="matrix(.63351067 0 0 .63351067 0 0)" font-size="12" font-family="PTSans"><tspan y="514" x="217.72133">&#xfb01;</tspan></text>
<text fill="#384347" xml:space="preserve" transform="matrix(.63351067 0 0 .63351067 0 0)" font-size="12" font-family="PTSans"><tspan y="514" x="224.20137 230.09342 236.18946 242.6455 245.48952 251.16556 257.5976 264.06565 269.4657 273.54573 279.49775 284.9098 290.29786 293.5019 296.7179 301.76994 306.82197 313.29 319.38606 324.43809 326.2021 329.40614 339.1502 345.10224 350.85029 354.06629 360.6303 367.07435 370.27839 376.2304 379.43446 385.9265 392.35859 397.4106 400.62666 404.69468 407.9107 413.56275 419.65879 422.8628 426.0788 435.82289 442.31495 448.26698 453.67903 457.74705 460.95106 467.38313 473.94715 477.15119 481.2192 487.78327 493.8793 497.0833 503.51539 510.0794 516.52346 522.9555 526.1715 532.73556 539.17959 542.3836 548.4796 555.0437 561.6077 567.55978 574.1238 579.2598 585.35586 595.09988 601.19589 607.7599 611.82797 615.032 620.984 627.54806 634.0041 637.2081 643.6402 650.13229 654.20028 657.41629 667.16036 670.37637 675.7404 681.69247 685.76046 688.97647 695.4085 701.97256 705.1766 711.46469 715.29269 718.4967 727.18478 733.2808 739.76089 742.9649 748.10098 754.533 764.2771 770.76919 777.20126 783.76528 789.86129 796.4253 800.49337 805.54537 808.7494 812.44546 818.8775 822.9575 826.16159 832.1136 835.3176 841.79769 847.89376 851.96176 855.89779 861.99386">xed YouTrack issues, making a positive impact on the ongoing enhancement and optimization of web components for a better</tspan></text>
<text fill="#384347" xml:space="preserve" transform="matrix(.63351067 0 0 .63351067 0 0)" font-size="12" font-family="PTSans"><tspan y="514" x="866.0781"> </tspan></text>
<text fill="#384347" xml:space="preserve" transform="matrix(.63351067 0 0 .63351067 0 0)" font-size="12" font-family="PTSans"><tspan y="531" x="76.984378 83.45242 88.504459 94.600498 98.68053 101.88455 107.70459 113.88463 120.37668 126.47272 130.55275 133.76877 139.8648 146.42885 151.56488 157.66092">user experience.</tspan></text>
<text fill="#384347" xml:space="preserve" transform="matrix(.63351067 0 0 .63351067 0 0)" font-size="12" font-family="PTSans"><tspan y="548" x="76.984378 84.808429 89.86046 95.9565 100.03653 103.240558 106.45657 113.020618 116.956638 123.05267 127.132709 130.96074 136.91278 142.04882 148.14485 151.34888 157.44492 160.94895 167.04499 176.78905 182.88509 189.44913 193.51715 198.56919 201.77321 210.46128 216.55731 220.63735 226.73339 229.93741 239.68148 246.11353 252.56957">User interface elements were modi</tspan></text>
<text fill="#384347" xml:space="preserve" transform="matrix(.63351067 0 0 .63351067 0 0)" font-size="12" font-family="PTSans"><tspan y="548" x="255.78559">&#xfb01;</tspan></text>
<text fill="#384347" xml:space="preserve" transform="matrix(.63351067 0 0 .63351067 0 0)" font-size="12" font-family="PTSans"><tspan y="548" x="262.26564 268.36167 274.8177 278.02174 283.97377 290.53779 296.99385 300.19789 303.41389 313.15797 319.65003 323.73005 330.0181 335.67015 341.76618 348.22224 351.42628 354.64228 361.2063 364.41035 368.49037 374.5864 379.63844 386.1305 392.56257 399.1266 404.17863 410.27467 413.4787 417.41474 423.8468 427.05085 433.5429 437.62294 444.055 447.25904 453.22309 458.63514 462.70317 465.90718 469.98719 475.95124 482.39527 488.8633 492.07936 496.15937 502.2554 511.99946 518.09548 524.65957 528.72756 533.77957 536.9836 542.9356 549.49966 555.9557 559.1597 565.6158 571.7118 576.7638 579.9798 586.4238 592.98788 596.1919 600.2719 606.10397 611.888 615.104 620.156 623.372 629.8041 636.3681 641.42019 643.1842 646.38827 651.4403 658.00436 664.3044 672.99246 678.4045 684.3565 689.40859 692.6246 699.1886 705.6326 708.8367 714.7887 721.24478 727.1968 733.68887 737.75686 743.70889 750.1889 753.4049 756.90896 760.12496 764.193 769.353 772.55709 778.5091 785.0731 791.5292 794.7332 800.68527 803.8893 810.34536 816.4414 822.89749 826.11349 831.5255 837.47756 841.54556 844.76156 851.1936 857.7576 860.9617 864.8977">ed and improved in response to project requirements and design revisions, showcasing adaptability and a dedication to</tspan></text>
<text fill="#384347" xml:space="preserve" transform="matrix(.63351067 0 0 .63351067 0 0)" font-size="12" font-family="PTSans"><tspan y="548" x="871.34378"> </tspan></text>
<text fill="#384347" xml:space="preserve" transform="matrix(.63351067 0 0 .63351067 0 0)" font-size="12" font-family="PTSans"><tspan y="565" x="76.984378 83.45242 89.94447 96.508518 102.94057 106.444599 112.900638 116.11665 122.680698 129.12474 132.32877 138.8928 142.10883 148.55287 155.11692 158.32094 163.37297 167.441 173.39304 179.95708 186.41312 192.36516 196.44519 202.90123 207.95326">upholding high standards.</tspan></text>
<path transform="matrix(.63351067,0,0,.63351067,0,0)" d="M57 622H883V623H57Z"/>
<text xml:space="preserve" transform="matrix(.63351067 0 0 .63351067 0 0)" font-size="16" font-family="Volkhov"><tspan y="612" x="430.60939 440.86543 450.73744 461.08946 468.92945 477.76148 483.76148 489.21748 498.7055">Education</tspan></text>
<text fill="#6f7878" xml:space="preserve" transform="matrix(.63351067 0 0 .63351067 0 0)" font-size="16" font-family="PTSans"><tspan y="645" x="57 65.49602 74.24803 82.18405 95.17607 103.75209 112.32811 121.080127 125.35213 133.92815 142.50417 147.17618 151.84819 159.80022 168.39223 176.52025 180.79225 189.17627 194.28028 198.55228 207.1283 215.88031 224.47232 228.76033 237.51235 245.46437 253.59239 259.0324 263.32044 272.07246">Shamoon College of Engineering</tspan></text>
<text xml:space="preserve" transform="matrix(.63351067 0 0 .63351067 0 0)" font-size="14" font-family="PTSans"><tspan y="664" x="57 65.175968 72.60994 75.60593 81.58391 85.3219 89.07388 96.73186 100.46985 107.903827 115.23979 119.48178 124.22777 134.51773 141.4617 146.22168 153.33365 157.07164 164.5756 172.23358 179.75156 183.50354 191.16152 198.11948 205.23145 209.99143 213.74341 221.40139">BS.c in Software Engineering</tspan></text>
<text fill="#384347" xml:space="preserve" transform="matrix(.63351067 0 0 .63351067 0 0)" font-size="14" font-family="PTSans"><tspan y="664" x="777.3594 784.9894 792.6194 797.5754 805.2053 812.8353 820.46536 828.09536 830.7133 834.6333 838.3713 845.7073 850.4673 857.5792 863.4732 870.5852 878.24319">09/2020 - Present</tspan></text>
<path transform="matrix(.63351067,0,0,.63351067,0,0)" d="M57 721H883V722H57Z"/>
<text xml:space="preserve" transform="matrix(.63351067 0 0 .63351067 0 0)" font-size="16" font-family="Volkhov"><tspan y="711" x="448.48439 457.8124 467.66844 473.20445 478.51646 483.82847">Skills</tspan></text>
<text fill="#384347" xml:space="preserve" transform="matrix(.63351067 0 0 .63351067 0 0)" font-size="12" font-family="PTSans"><tspan y="741" x="57 60.49202 66.44406 72.2281">Java</tspan></text>
<text fill="#384347" xml:space="preserve" transform="matrix(.63351067 0 0 .63351067 0 0)" font-size="12" font-family="PTSans"><tspan y="741" x="88.1875 91.67952 97.63156 103.4156 109.367649 114.41968 119.83171 123.91174 127.12776 133.61981">Javascript</tspan></text>
<text fill="#384347" xml:space="preserve" transform="matrix(.63351067 0 0 .63351067 0 0)" font-size="12" font-family="PTSans"><tspan y="741" x="147.70313 152.82718 158.41922 164.91127 171.00731 176.05934 181.47138 185.5514 188.76743 195.25948">Typescript</tspan></text>
<text fill="#384347" xml:space="preserve" transform="matrix(.63351067 0 0 .63351067 0 0)" font-size="12" font-family="PTSans"><tspan y="741" x="209.32813 216.03618 221.62822 225.69625 232.26029 238.69234">Python</tspan></text>
<text fill="#384347" xml:space="preserve" transform="matrix(.63351067 0 0 .63351067 0 0)" font-size="12" font-family="PTSans"><tspan y="741" x="255.26563 263.32969 269.98976 279.4818">HTML</tspan></text>
<text fill="#384347" xml:space="preserve" transform="matrix(.63351067 0 0 .63351067 0 0)" font-size="12" font-family="PTSans"><tspan y="741" x="295.6875 302.53956 308.9116 315.28364 319.53169 325.90373 332.75578 339.1278">CSS/SCSS</tspan></text>
<text fill="#384347" xml:space="preserve" transform="matrix(.63351067 0 0 .63351067 0 0)" font-size="12" font-family="PTSans"><tspan y="741" x="355.5">C</tspan></text>
<text fill="#384347" xml:space="preserve" transform="matrix(.63351067 0 0 .63351067 0 0)" font-size="12" font-family="PTSans"><tspan y="741" x="385.5 392.35206 398.4121">C++</tspan></text>
<text fill="#384347" xml:space="preserve" transform="matrix(.63351067 0 0 .63351067 0 0)" font-size="12" font-family="PTSans"><tspan y="741" x="415.5 422.06404 428.16007 434.11213 439.52418">React</tspan></text>
<text fill="#384347" xml:space="preserve" transform="matrix(.63351067 0 0 .63351067 0 0)" font-size="12" font-family="PTSans"><tspan y="741" x="453.59376 459.9658 466.45783 470.53785 473.75386 480.31788 486.7619 489.96595 496.974 503.40608 509.83815">Spring Boot</tspan></text>
<text fill="#384347" xml:space="preserve" transform="matrix(.63351067 0 0 .63351067 0 0)" font-size="12" font-family="PTSans"><tspan y="741" x="523.90628 530.2783 536.7704 540.8504 544.0664 550.63046 557.07449 560.2785 566.6505 572.61459 578.0266 584.4946 588.57467 591.79067 595.85867">Spring Security</tspan></text>
<text fill="#384347" xml:space="preserve" transform="matrix(.63351067 0 0 .63351067 0 0)" font-size="12" font-family="PTSans"><tspan y="741" x="611.4531 617.7292 624.16128 629.21328 633.1493 639.5933 643.67337 649.7694 656.1415 664.34957">PostgreSQL</tspan></text>
<text fill="#384347" xml:space="preserve" transform="matrix(.63351067 0 0 .63351067 0 0)" font-size="12" font-family="PTSans"><tspan y="741" x="680.5625 690.05459 695.6466 702.0187 710.22677">MySQL</tspan></text>
<text fill="#384347" xml:space="preserve" transform="matrix(.63351067 0 0 .63351067 0 0)" font-size="12" font-family="PTSans"><tspan y="741" x="726.4375 733.0015 739.09756 745.5536 752.0216">Redux</tspan></text>
<text fill="#384347" xml:space="preserve" transform="matrix(.63351067 0 0 .63351067 0 0)" font-size="12" font-family="PTSans"><tspan y="741" x="768.2031 774.8872 784.82327">AWS</tspan></text>
<text fill="#384347" xml:space="preserve" transform="matrix(.63351067 0 0 .63351067 0 0)" font-size="12" font-family="PTSans"><tspan y="741" x="801.2031 809.05117 815.4832 820.89529 826.4993 832.59536">Docker</tspan></text>
<text fill="#384347" xml:space="preserve" transform="matrix(.63351067 0 0 .63351067 0 0)" font-size="12" font-family="PTSans"><tspan y="741" x="846.6875 854.03158 857.24758 861.31558 867.8796 874.34768">Github</tspan></text>
<text fill="#384347" xml:space="preserve" transform="matrix(.63351067 0 0 .63351067 0 0)" font-size="12" font-family="PTSans"><tspan y="760" x="57 66.492069 72.44411 76.38013 82.476169 86.5562 89.77222 95.72426 99.22829 103.548328 111.372379">Material-UI</tspan></text>
<text fill="#384347" xml:space="preserve" transform="matrix(.63351067 0 0 .63351067 0 0)" font-size="12" font-family="PTSans"><tspan y="760" x="124.875 130.27506 136.2271 139.44312 142.94715 152.88321 156.09923 162.66327 169.11931 175.97136 182.3434">TailWindCSS</tspan></text>
<text fill="#384347" xml:space="preserve" transform="matrix(.63351067 0 0 .63351067 0 0)" font-size="12" font-family="PTSans"><tspan y="760" x="198.71875 206.9268 215.13486">OOP</tspan></text>
<text fill="#384347" xml:space="preserve" transform="matrix(.63351067 0 0 .63351067 0 0)" font-size="12" font-family="PTSans"><tspan y="760" x="231.84375 238.5638 246.77185">AOP</tspan></text>
<path transform="matrix(.63351067,0,0,.63351067,0,0)" d="M57 820H883V821H57Z"/>
<text xml:space="preserve" transform="matrix(.63351067 0 0 .63351067 0 0)" font-size="16" font-family="Volkhov"><tspan y="810" x="439.17189 449.31593 456.40394 465.89198 470.74 479.316 487.156 493.156">Projects</tspan></text>
<text fill="#6f7878" xml:space="preserve" transform="matrix(.63351067 0 0 .63351067 0 0)" font-size="16" font-family="PTSans"><tspan y="843" x="57 65.57602 70.24803 75.80005 83.57608 91.5121 99.64012 104.31213 108.280139 120.85617 128.98419 137.6242 144.36022 148.64823 153.89624">El-Yael Website</tspan></text>
<text xml:space="preserve" transform="matrix(.63351067 0 0 .63351067 0 0)" font-size="14" font-family="PTSans"><tspan y="862" x="57 64.657978 69.40396 74.14995 81.72392 87.617908 90.9639 95.919879 100.875858 107.98782 112.075809 118.59978 125.54375 132.65572 136.7437 139.73969 145.73166 153.23563">https://elyael.com</tspan></text>
<text fill="#384347" xml:space="preserve" transform="matrix(.63351067 0 0 .63351067 0 0)" font-size="12" font-family="PTSans"><tspan y="884" x="57 64.84805 70.680088 76.33212 82.42816 85.93219 92.36424 98.85629 104.95233 111.40837 114.6124 120.56444 127.12848 133.58452 136.78855 143.24459 149.34062 155.83267 159.3367 165.62476 171.0848 177.18083 183.63687 186.8409 192.79294 195.99697 202.42902 208.86107 218.60514 225.09719 229.17722 235.27326 241.8373 247.93334 254.49738 259.5494 262.76545 268.41749 274.51353 277.71754 284.2096 287.71363 293.66566 297.73368 301.4297 307.86177 311.94178 321.68586 324.8899 328.58595 335.018 339.09803 342.30207 348.3981">Developed and deployed a Comprehensive platform for ef</tspan></text>
<text fill="#384347" xml:space="preserve" transform="matrix(.63351067 0 0 .63351067 0 0)" font-size="12" font-family="PTSans"><tspan y="884" x="352.22615">&#xfb01;</tspan></text>
<text fill="#384347" xml:space="preserve" transform="matrix(.63351067 0 0 .63351067 0 0)" font-size="12" font-family="PTSans"><tspan y="884" x="358.70619 364.11824 367.33424 373.43028 379.99433 384.06236 386.90638 392.78645 399.8065 406.23854 411.93858 415.14259 420.96263 427.14265 433.09468 442.83876 446.0428 452.53486 456.61488 462.7109 469.20295 475.15498 479.235 485.187 489.25505 492.47108 498.90315 505.46717">cient YAEL exam preparation.</tspan></text>
<text fill="#384347" xml:space="preserve" transform="matrix(.63351067 0 0 .63351067 0 0)" font-size="12" font-family="PTSans"><tspan y="904" x="76.984378 82.10843 88.072467 93.4845 100.04854 103.25256 109.6246 113.69263 119.64467 125.0567 130.44475 133.64878 136.2768 139.48082 146.04486 152.1409 158.09294 163.50498 167.765 169.529 172.73303 182.2251 188.17714 192.11316 198.2092 202.28923 205.50525 211.45729 214.96132 219.28136 227.10541 230.59743 232.36144 235.56546 241.9375 248.42955 252.50959 255.7256 262.28965 268.7337 271.93775 278.9458 285.37788 291.80995 296.06996 297.83396 301.03797 307.31404 313.7461 318.79814 322.73414 329.17817 333.2582 339.35426 345.7263 353.93437 360.1384 361.9024 365.1064 372.95448 379.3865 384.79856 390.40263 396.49867 399.85868 401.62269 404.44273 411.12678 421.06285 427.43489 430.6389 437.77894 445.62699 451.99903">Tech Stack : React, Material-UI, Spring Boot, PostgreSQL, Docker, AWS RDS.</tspan></text>
<text fill="#6f7878" xml:space="preserve" transform="matrix(.63351067 0 0 .63351067 0 0)" font-size="16" font-family="PTSans"><tspan y="937" x="57 65.224018 70.984027 83.57605 91.51207 96.95209 105.08011 113.83212 122.40814 131.03217 137.76818">V-Warehouse</tspan></text>
<text fill="#384347" xml:space="preserve" transform="matrix(.63351067 0 0 .63351067 0 0)" font-size="12" font-family="PTSans"><tspan y="961" x="57 64.84805 70.680088 76.33212 82.42816 85.93219 92.36424 98.85629 104.95233 111.40837 114.6124 120.56444 123.76846 130.1405 136.57256 143.0646 149.62865 152.84467 157.8967 161.96472 165.18074 170.59278 176.54482 180.48084 186.57688 193.03292 196.23694 202.20098 208.64502 215.11307 218.32909 224.82114 234.5652 240.66124 247.22528 251.2933 254.49733 264.2414 270.19343 276.75746 282.70948 289.1535 295.24955 304.9936 311.08964 317.6537 321.7217 324.92573 329.97776 335.5698 340.62184 344.55787 350.6539 360.39796 363.602 367.29804 373.7301 377.81013 380.84614 386.6302 389.8462 394.89823 401.36628 407.3183 410.82234 414.02638 419.1624 425.59449 435.33857 445.08265 451.5507 458.11476 461.33076 466.7428 472.69483 476.76286 479.97889 486.41096 492.97499 496.17903 502.63508 508.7311 515.22317 521.1752 525.61526 529.6832 539.4273 545.5233 552.0874 556.3474">Developed a Sophisticated equipment management system for visual communication department.</tspan></text>
<text fill="#384347" xml:space="preserve" transform="matrix(.63351067 0 0 .63351067 0 0)" font-size="12" font-family="PTSans"><tspan y="981" x="76.984378 82.10843 88.072467 93.4845 100.04854 104.368579 110.740619 114.80864 120.76068 126.172718 131.56076 134.76479 137.3928 140.59683 147.16088 153.25691 159.20896 164.62099 168.88101 170.64502 173.84905 183.34111 189.29315 193.22917 199.32521 203.40525 206.62126 212.5733 216.07733 220.39737 228.22142 231.71344 233.47745 236.68148 243.05352 249.54557 253.6256 256.8416 263.40565 269.84968 273.0537 280.06178 286.49385 292.9259 297.1859 298.94993 302.15394 308.43 314.86207 319.9141 323.8501 330.29414 334.37416 340.47019 346.84223 355.05027 361.2543">Tech-Stack : React, Material-UI, Spring Boot, PostgreSQL.</tspan></text>
<path transform="matrix(.63351067,0,0,.63351067,0,0)" d="M57 1038H883V1039H57Z"/>
<text xml:space="preserve" transform="matrix(.63351067 0 0 .63351067 0 0)" font-size="16" font-family="Volkhov"><tspan y="1028" x="427.82814 437.71614 446.54817 457.22019 466.98023 477.33226 486.16426 495.92427 504.50028">Languages</tspan></text>
<text xml:space="preserve" transform="matrix(.63351067 0 0 .63351067 0 0)" font-size="14" font-family="PTSans"><tspan y="1059" x="57 66.40796 73.51993 81.079898 85.839878 92.79784">Hebrew</tspan></text>
<text fill="#384347" xml:space="preserve" transform="matrix(.63351067 0 0 .63351067 0 0)" font-size="12" font-family="PTSans"><tspan y="1059" x="113.09375 119.29779 125.76584 129.26987 132.7739 135.97792 142.26598 146.34601 152.63407 156.3301 162.42613 167.47817 172.5302 175.74622 182.17827 188.74231 194.69435 198.19838 201.4024 207.69046 211.7705">Full Professional Pro</tspan></text>
<text fill="#384347" xml:space="preserve" transform="matrix(.63351067 0 0 .63351067 0 0)" font-size="12" font-family="PTSans"><tspan y="1059" x="218.20255">&#xfb01;</tspan></text>
<text fill="#384347" xml:space="preserve" transform="matrix(.63351067 0 0 .63351067 0 0)" font-size="12" font-family="PTSans"><tspan y="1059" x="224.68259 230.09462 233.31064 239.40668 245.97072 251.23876">ciency</tspan></text>
<text xml:space="preserve" transform="matrix(.63351067 0 0 .63351067 0 0)" font-size="14" font-family="PTSans"><tspan y="1059" x="341 348.50398 356.16194 363.6799 367.76789 371.51988 377.41386">English</tspan></text>
<text fill="#384347" xml:space="preserve" transform="matrix(.63351067 0 0 .63351067 0 0)" font-size="12" font-family="PTSans"><tspan y="1059" x="395.07814 401.28218 407.7502 411.25425 414.75828 417.96229 424.25035 428.33039 434.61845 438.31446 444.4105 449.46253 454.51457 457.7306 464.16267 470.72669 476.6787 480.18275 483.38679 489.67485 493.75489">Full Professional Pro</tspan></text>
<text fill="#384347" xml:space="preserve" transform="matrix(.63351067 0 0 .63351067 0 0)" font-size="12" font-family="PTSans"><tspan y="1059" x="500.18696">&#xfb01;</tspan></text>
<text fill="#384347" xml:space="preserve" transform="matrix(.63351067 0 0 .63351067 0 0)" font-size="12" font-family="PTSans"><tspan y="1059" x="506.667 512.07907 515.29507 521.3911 527.95516 533.22317">ciency</tspan></text>
<text xml:space="preserve" transform="matrix(.63351067 0 0 .63351067 0 0)" font-size="14" font-family="PTSans"><tspan y="1059" x="625 633.18997 637.94998 644.8939 652.45388 656.2058">Arabic</tspan></text>
<text fill="#384347" xml:space="preserve" transform="matrix(.63351067 0 0 .63351067 0 0)" font-size="12" font-family="PTSans"><tspan y="1059" x="672.53128 678.7353 685.20339 688.7074 692.2114 695.41549 701.7035 705.7835 712.07156 715.7676 721.86367 726.91567 731.96768 735.18368 741.6157 748.17977 754.1318 757.6358 760.83987 767.1279 771.20797">Full Professional Pro</tspan></text>
<text fill="#384347" xml:space="preserve" transform="matrix(.63351067 0 0 .63351067 0 0)" font-size="12" font-family="PTSans"><tspan y="1059" x="777.64">&#xfb01;</tspan></text>
<text fill="#384347" xml:space="preserve" transform="matrix(.63351067 0 0 .63351067 0 0)" font-size="12" font-family="PTSans"><tspan y="1059" x="784.12008 789.5321 792.7481 798.8441 805.40817 810.67617">ciency</tspan></text>
<text fill="#384347" xml:space="preserve" transform="matrix(.63351067 0 0 .63351067 0 0)" font-size="11" font-family="PTSans"><tspan y="1283" x="60 68.084949 76.16989 83.57283 85.92682 91.51477 97.53172 103.548679 109.00464 115.02159 119.98256 124.49251 126.8465 131.55446 137.45041">www.enhancv.com</tspan></text>
<text fill="#384347" xml:space="preserve" transform="matrix(.63351067 0 0 .63351067 0 0)" font-size="100" font-family="Unnamed"><tspan y="1328" x="771">&#xe06d;</tspan></text>
<text fill="#384347" xml:space="preserve" transform="matrix(.63351067 0 0 .63351067 0 0)" font-size="11" font-family="Inter"><tspan y="1281" x="691 697.9219 704.28128 713.0156 719.4176 723.3281 729.7301 736.5611 739.6521 746.2656">Powered by</tspan></text>
<text fill="#384347" xml:space="preserve" transform="matrix(.63351067 0 0 .63351067 0 0)" font-size="11" font-family="PTSans"><tspan y="337" x="59">&#x2022;</tspan></text>
<text fill="#384347" xml:space="preserve" transform="matrix(.63351067 0 0 .63351067 0 0)" font-size="11" font-family="PTSans"><tspan y="371" x="59">&#x2022;</tspan></text>
<text fill="#384347" xml:space="preserve" transform="matrix(.63351067 0 0 .63351067 0 0)" font-size="11" font-family="PTSans"><tspan y="388" x="59">&#x2022;</tspan></text>
<text fill="#384347" xml:space="preserve" transform="matrix(.63351067 0 0 .63351067 0 0)" font-size="11" font-family="PTSans"><tspan y="405" x="59">&#x2022;</tspan></text>
<text fill="#384347" xml:space="preserve" transform="matrix(.63351067 0 0 .63351067 0 0)" font-size="11" font-family="PTSans"><tspan y="479" x="59">&#x2022;</tspan></text>
<text fill="#384347" xml:space="preserve" transform="matrix(.63351067 0 0 .63351067 0 0)" font-size="11" font-family="PTSans"><tspan y="513" x="59">&#x2022;</tspan></text>
<text fill="#384347" xml:space="preserve" transform="matrix(.63351067 0 0 .63351067 0 0)" font-size="11" font-family="PTSans"><tspan y="547" x="59">&#x2022;</tspan></text>
<text fill="#384347" xml:space="preserve" transform="matrix(.63351067 0 0 .63351067 0 0)" font-size="11" font-family="PTSans"><tspan y="903" x="59">&#x2022;</tspan></text>
<text fill="#384347" xml:space="preserve" transform="matrix(.63351067 0 0 .63351067 0 0)" font-size="11" font-family="PTSans"><tspan y="980" x="59">&#x2022;</tspan></text>
</g>
</g>
</svg>
